# xmcd
#
# Track frame offsets:
#	150
#	12557
#	24887
#	35367
#	49282
#	63032
#	75542
#	87792
#	101315
#	114052
#	127527
#
# Disc length: 1871 seconds
#
# Revision: 2
# Processed by: cddbd v1.5.1PL2 Copyright (c) Steve Scherf et al.
# Submitted via: audiograbber 1.83.01
#
DISCID=6b074d0b
DTITLE=Various Artist - Voices Of Heaven
DYEAR=1993
DGENRE=R&B
TTITLE0=Otis Redding - (Sittin` On) The Dock Of The Bay
TTITLE1=Jackie Wilson - Lonely Teardrops
TTITLE2=Frankie Lymon and The Teenagers - Why Do Fools Fall In Love
TTITLE3=Howlin' Wolf - Smokestack Lightnin`
TTITLE4=Jackie Wilson - Baby Workout
TTITLE5=Mary Wells - My Guy
TTITLE6=Little Willie John - Fever
TTITLE7=Joe Turner - Shake, Rattle And Roll
TTITLE8=Jackie Brenston and His Delta Kings - Rocket 88
TTITLE9=Jackie Wilson - (Your Love Keeps Lifting Me) Higher and Higher
TTITLE10=Billy Eckstine - I Apologize
EXTD=1993 - Perfect Pitch Records
EXTT0=
EXTT1=
EXTT2=
EXTT3=
EXTT4=
EXTT5=
EXTT6=
EXTT7=
EXTT8=
EXTT9=
EXTT10=
PLAYORDER=
